<svg xmlns="http://www.w3.org/2000/svg" width="335.363" height="59.356" viewBox="0 0 335.363 59.356">
  <g id="logo-travelworld" transform="translate(-9430.576 63)">
    <path id="Logo" d="M20.07,21.884V-16.1h2.458c9.328,0,9.887,4.748,10.389,9.272,0,.614.056.894.559.894s.5-.335.5-.894l-.67-10.333c-2.569.112-4.189.168-8.658.168H9.848c-4.469,0-6.032-.056-8.658-.168L.576-6.827c0,.559,0,.894.5.894.335,0,.5-.112.559-.894.5-4.524,1.005-9.272,10.333-9.272h2.514V21.884H9.01a.514.514,0,0,0-.559.5.526.526,0,0,0,.559.559c1.005,0,4.86-.168,8.323-.168,2.849,0,5.195.112,8.043.168a.56.56,0,0,0,.559-.559.552.552,0,0,0-.559-.5Zm21.5.335V9.6h3.3c11.283,0,.112,13.685,11.786,13.685,2.458,0,3.687-.614,3.687-1.061,0-.112-.056-.223-.279-.223A17.334,17.334,0,0,1,58,22.386c-2.178,0-2.178-3.3-2.178-5.251,0-4.189-1.173-7.429-7.876-7.764,5.418-.67,8.1-2.737,8.1-6.759,0-5.865-5.753-6.591-11.618-6.591-1.676,0-3.854.056-5.641.056-2.793,0-4.86,0-6.144-.056-.279,0-.391.168-.391.335a.382.382,0,0,0,.391.391H36.1V22.219H32.638a.349.349,0,0,0-.391.391c0,.112.056.279.559.279s3.575-.112,6.033-.112c1.732,0,4.524.056,6.312.112.279,0,.391-.168.391-.335,0-.279-.223-.335-.391-.335Zm0-25.415c5.251,0,8.993.223,8.993,6.088,0,5.809-3.687,5.977-8.993,5.977ZM87.768,22.219c-1.62,0-1.955,0-2.96-2.737L76.429-2.581c-.726-2.011-1.061-2.067-1.4-2.067-.614,0-1.005.223-1.787,2.178L64.867,18.644c-1.564,4.078-2.96,3.3-4.133,3.575-.223.056-.391.056-.391.279a.382.382,0,0,0,.391.391c1.005,0,2.29-.112,4.748-.112,1.732,0,1.285.056,3.24.112a.353.353,0,0,0,.391-.391c0-.168-.112-.279-.391-.279h-.279c-2.29,0-3.3-.67-3.3-1.9a6.4,6.4,0,0,1,.67-2.29l1.787-4.58H76.6L79,19.705a3.879,3.879,0,0,1,.335,1.508c0,.95-.838,1.005-1.9,1.005h-.894c-.223,0-.391.112-.391.335,0,.168.056.335.559.335.447,0,3.463-.112,5.921-.112,1.787,0,4.133.056,6.088.112a.382.382,0,0,0,.391-.391c0-.168-.168-.279-.391-.279Zm-11.451-9.5H67.939L72.184,1.887Zm22.454,9.5c.279.838.559,1.341,1.341,1.341.559,0,.894-.223,1.173-1.173l7.6-22.175c.95-2.793,1.4-3.351,4.022-3.463q.5,0,.5-.335a.441.441,0,0,0-.447-.447c-.95,0-2.29.112-4.692.112-1.732,0-1.285-.056-3.24-.112a.433.433,0,0,0-.447.391.4.4,0,0,0,.447.391h.279c1.732,0,3.407.056,3.407,1.229a10.711,10.711,0,0,1-.894,3.184l-5.306,15.472L96.37-.347a7.809,7.809,0,0,1-.5-1.9c0-.95.726-1.005,1.9-1.005H98.6c.279,0,.335-.168.335-.391,0-.168,0-.391-.5-.391-.391,0-3.407.112-5.921.112-1.843,0-4.189-.056-6.088-.112a.369.369,0,0,0-.335.391c0,.223.112.391.335.391h.894c1.732,0,2.067.056,3.072,2.625Zm25.582,0V9.651h1.4c3.966,0,5.418.67,5.7,5.418,0,.391.056.67.447.67.168,0,.223-.056.223-.67,0-4.022-.112-3.407-.112-6.033,0-1.787.112-2.849.168-5.306,0-.5,0-.67-.335-.67-.391,0-.447.279-.447.559-.279,3.687-.5,5.362-5.642,5.362h-1.4V-3.252h4.469c7.541,0,8.1,2.9,8.881,7.317,0,.391.112.559.447.559.223,0,.223-.056.223-.614,0-1.341-.279-4.524-.279-8.043-.95.112-4.748.112-16.478.112-1.787,0-4.245-.056-6.2-.112a.379.379,0,0,0-.391.391.382.382,0,0,0,.391.391h3.463V22.219h-3.463c-.168,0-.391.056-.391.335,0,.168.112.335.391.335,2.067,0,4.245-.112,6.2-.112,12.4,0,15.3.056,16.98.112-.112-1.173-.112-2.346-.112-3.463,0-1.005.056-3.016.112-4.58,0-.391,0-.67-.335-.67-.223,0-.335.223-.391.67-.782,5.083-1.173,7.373-9.942,7.373Zm28.543,0V-3.252h3.575c.168,0,.335-.112.335-.447,0-.112,0-.335-.559-.335-.5,0-3.687.112-6.088.112-1.787,0-4.357-.056-6.2-.112a.379.379,0,0,0-.391.391.382.382,0,0,0,.391.391h3.463V22.219H143.96c-.168,0-.391.056-.391.335,0,.168.056.335.559.335s3.687-.112,6.033-.112c11.9,0,14.579.056,16.087.112-.056-1.061-.112-2.346-.112-3.3,0-1.732.168-3.631.168-4.8,0-.335,0-.614-.335-.614-.279,0-.391.223-.447.67-.782,5.362-1.117,7.373-10.054,7.373Z" transform="translate(9430 -27.594)" fill="#a2fffc"/>
    <path id="Logo-2" data-name="Logo" d="M35.882,22.945c.223.614.447,1.005.782,1.005.447,0,.67-.447,1.061-1.9l9.551-33.737c1.285-4.413,3.3-4.413,4.748-4.413h.782a.575.575,0,0,0,.614-.559c0-.279-.223-.5-.614-.5-1.508,0-2.681.168-5.977.168-2.681,0-3.3-.112-6.144-.168-.391,0-.614.223-.614.5a.575.575,0,0,0,.614.559H43.7c2.011,0,2.737.726,2.737,2.346a17.14,17.14,0,0,1-.894,4.636l-6.7,23.739L29.906-13.585a5.513,5.513,0,0,1-.335-1.4c0-1.005.726-1.117,2.346-1.117h2.737a.586.586,0,0,0,.614-.614c0-.223-.112-.447-.782-.447-.559,0-3.24.168-7.82.168-3.742,0-3.91-.112-7.15-.168-.391,0-.614.223-.614.5a.575.575,0,0,0,.614.559h2.011c.894,0,1.452.168,2.514,3.351l2.514,7.6L20.689,14.734,11.808-13.585a5.357,5.357,0,0,1-.335-1.452c0-.95.614-1.061,2.178-1.061h2.123a.575.575,0,0,0,.614-.559c0-.279-.223-.5-.614-.5-.95,0-2.793.168-7.373.168-3.687,0-5.251-.112-8.49-.168a.486.486,0,0,0-.559.5.526.526,0,0,0,.559.559H3.262c.894,0,1.564.447,2.569,3.351L17.617,22.945c.279.726.447,1.005.838,1.005.335,0,.559-.279,1.061-1.9l7.6-25.526ZM80.511,9.316a14.133,14.133,0,0,0-28.263,0,14.133,14.133,0,0,0,28.263,0ZM66.38,22.554c-6.982,0-8.49-6.312-8.49-13.238,0-6.982,1.508-13.294,8.49-13.294,6.926,0,8.49,6.312,8.49,13.294C74.87,16.242,73.306,22.554,66.38,22.554Zm27.258-.335V9.6h3.3c11.283,0,.112,13.685,11.786,13.685,2.458,0,3.687-.614,3.687-1.061,0-.112-.056-.223-.279-.223a17.334,17.334,0,0,1-2.067.391c-2.178,0-2.178-3.3-2.178-5.251,0-4.189-1.173-7.429-7.876-7.764,5.418-.67,8.1-2.737,8.1-6.759,0-5.865-5.753-6.591-11.618-6.591-1.676,0-3.854.056-5.642.056-2.793,0-4.86,0-6.144-.056-.279,0-.391.168-.391.335a.382.382,0,0,0,.391.391h3.463V22.219H84.7a.349.349,0,0,0-.391.391c0,.112.056.279.559.279s3.575-.112,6.033-.112c1.732,0,4.524.056,6.312.112.279,0,.391-.168.391-.335,0-.279-.223-.335-.391-.335Zm0-25.415c5.251,0,8.993.223,8.993,6.088,0,5.809-3.687,5.977-8.993,5.977Zm30.5,25.415V-3.252h3.575c.168,0,.335-.112.335-.447,0-.112,0-.335-.559-.335-.5,0-3.687.112-6.088.112-1.787,0-4.357-.056-6.2-.112a.379.379,0,0,0-.391.391.382.382,0,0,0,.391.391h3.463V22.219H115.2c-.168,0-.391.056-.391.335,0,.168.056.335.559.335s3.687-.112,6.032-.112c11.9,0,14.579.056,16.087.112-.056-1.061-.112-2.346-.112-3.3,0-1.732.168-3.631.168-4.8,0-.335,0-.614-.335-.614-.279,0-.391.223-.447.67-.782,5.362-1.117,7.373-10.054,7.373Zm20.723,0H141.4c-.168,0-.391.056-.391.335,0,.168.056.335.559.335.447,0,3.631-.112,6.032-.112,1.676,0,4.357.056,5.474.056,13.126,0,16.925-7.261,16.925-13.573,0-6.144-3.575-13.294-16.757-13.294-1.62,0-3.687.112-5.753.112-1.452,0-4.692-.056-6.088-.112a.379.379,0,0,0-.391.391.382.382,0,0,0,.391.391h3.463Zm5.474-25.471c8.658,0,14.02,3.016,14.02,12.624,0,5.53-1.787,9.719-5.977,11.674-2.178,1.005-4.636,1.061-8.043,1.061Z" transform="translate(9595.945 -27.594)" fill="#a2fffc"/>
    <path id="Icon_ionic-ios-airplane" data-name="Icon ionic-ios-airplane" d="M22.706,9.186c-.205,0-.894.006-1.088.018l-3.922.1a.112.112,0,0,1-.1-.054l-5.88-8.8A.971.971,0,0,0,10.9,0H9.465c-.338,0-.453.338-.332.653l3.028,8.63a.118.118,0,0,1-.109.163l-7.4.109a.487.487,0,0,1-.4-.187L2.02,6.647a.959.959,0,0,0-.761-.369H.243a.241.241,0,0,0-.23.32l1.2,4.152a.985.985,0,0,1,0,.719l-1.2,4.152a.241.241,0,0,0,.23.32H1.252a.977.977,0,0,0,.761-.369l2.278-2.762a.5.5,0,0,1,.4-.187l7.354.163a.12.12,0,0,1,.109.163L9.127,21.586c-.121.314-.006.653.332.653h1.432a.963.963,0,0,0,.816-.447l5.886-8.8a.119.119,0,0,1,.1-.054l3.922.1c.2.012.882.018,1.088.018,2.677,0,4.369-.864,4.369-1.934S25.389,9.186,22.706,9.186Z" transform="matrix(0.966, -0.259, 0.259, 0.966, 9564.897, -55.993)" fill="#a2fffc"/>
  </g>
</svg>
