<svg xmlns="http://www.w3.org/2000/svg" width="20.59" height="20.59" viewBox="0 0 20.59 20.59">
  <path id="icon-facebook" d="M18.384,2.25H2.206A2.206,2.206,0,0,0,0,4.456V20.634A2.206,2.206,0,0,0,2.206,22.84H8.514v-7h-2.9V12.545h2.9V10.034c0-2.856,1.7-4.434,4.305-4.434a17.541,17.541,0,0,1,2.552.222v2.8H13.934a1.648,1.648,0,0,0-1.858,1.78v2.139h3.161l-.506,3.295H12.076v7h6.308a2.206,2.206,0,0,0,2.206-2.206V4.456A2.206,2.206,0,0,0,18.384,2.25Z" transform="translate(0 -2.25)" fill="#fbe2b9"/>
</svg>
