<svg xmlns="http://www.w3.org/2000/svg" width="20.595" height="20.59" viewBox="0 0 20.595 20.59">
  <path id="icon-instagram" d="M10.294,7.254a5.279,5.279,0,1,0,5.279,5.279A5.271,5.271,0,0,0,10.294,7.254Zm0,8.711a3.432,3.432,0,1,1,3.432-3.432A3.438,3.438,0,0,1,10.294,15.965Zm6.726-8.927a1.231,1.231,0,1,1-1.231-1.231A1.228,1.228,0,0,1,17.021,7.038Zm3.5,1.25a6.093,6.093,0,0,0-1.663-4.314A6.134,6.134,0,0,0,14.54,2.31c-1.7-.1-6.8-.1-8.5,0A6.125,6.125,0,0,0,1.73,3.969,6.113,6.113,0,0,0,.067,8.283c-.1,1.7-.1,6.8,0,8.5A6.093,6.093,0,0,0,1.73,21.092a6.141,6.141,0,0,0,4.314,1.663c1.7.1,6.8.1,8.5,0a6.093,6.093,0,0,0,4.314-1.663,6.134,6.134,0,0,0,1.663-4.314c.1-1.7.1-6.791,0-8.491ZM18.321,18.6a3.475,3.475,0,0,1-1.957,1.957c-1.355.538-4.571.414-6.069.414s-4.718.119-6.069-.414A3.475,3.475,0,0,1,2.268,18.6c-.538-1.355-.413-4.571-.413-6.069s-.119-4.718.413-6.069A3.475,3.475,0,0,1,4.225,4.506c1.355-.538,4.571-.414,6.069-.414s4.718-.119,6.069.414a3.475,3.475,0,0,1,1.957,1.957c.538,1.355.413,4.571.413,6.069S18.858,17.251,18.321,18.6Z" transform="translate(0.005 -2.238)" fill="#fbe2b9"/>
</svg>
