<svg xmlns="http://www.w3.org/2000/svg" width="20.692" height="20.692" viewBox="0 0 20.692 20.692">
  <path id="icon-dribbble" d="M10.909.563A10.346,10.346,0,1,0,21.255,10.909,10.358,10.358,0,0,0,10.909.563Zm6.841,4.771a8.8,8.8,0,0,1,2,5.5,20.652,20.652,0,0,0-6.153-.284c-.24-.586-.466-1.1-.777-1.736A11.772,11.772,0,0,0,17.749,5.334Zm-.982-1.022A9.978,9.978,0,0,1,12.135,7.5a47.171,47.171,0,0,0-3.3-5.173,8.814,8.814,0,0,1,7.929,1.981ZM7.151,2.925a56.387,56.387,0,0,1,3.276,5.111,32.963,32.963,0,0,1-8.17,1.077A8.869,8.869,0,0,1,7.151,2.925Zm-5.08,8c0-.09,0-.18,0-.27A32.645,32.645,0,0,0,6.1,10.418a29.692,29.692,0,0,0,5.057-1.023c.253.5.495,1,.716,1.5a13.688,13.688,0,0,0-7.531,5.937A8.8,8.8,0,0,1,2.071,10.922Zm3.413,6.972a12.43,12.43,0,0,1,6.991-5.538,36.734,36.734,0,0,1,1.885,6.7,8.819,8.819,0,0,1-8.876-1.163Zm10.362.354a38.142,38.142,0,0,0-1.717-6.3,12.971,12.971,0,0,1,5.5.378,8.853,8.853,0,0,1-3.788,5.923Z" transform="translate(-0.563 -0.563)" fill="#fbe2b9"/>
</svg>
