<svg xmlns="http://www.w3.org/2000/svg" width="24.488" height="20.114" viewBox="0 0 24.488 20.114">
  <path id="Icon_ionic-ios-airplane" data-name="Icon ionic-ios-airplane" d="M22.784,13.37c-.186,0-.809.005-.984.016l-3.547.093a.1.1,0,0,1-.093-.049L12.842,5.467a.878.878,0,0,0-.738-.4h-1.3c-.306,0-.41.306-.3.59l2.738,7.805a.107.107,0,0,1-.1.148l-6.69.1a.44.44,0,0,1-.361-.169l-2.022-2.46a.867.867,0,0,0-.689-.333H2.468a.218.218,0,0,0-.208.29l1.088,3.755a.891.891,0,0,1,0,.65L2.261,19.191a.218.218,0,0,0,.208.29h.913a.884.884,0,0,0,.689-.333l2.061-2.5a.448.448,0,0,1,.361-.169l6.652.148a.108.108,0,0,1,.1.148L10.5,24.586c-.109.284-.005.59.3.59h1.3a.871.871,0,0,0,.738-.4l5.324-7.958a.107.107,0,0,1,.093-.049l3.547.093c.18.011.8.016.984.016,2.421,0,3.952-.782,3.952-1.749S25.211,13.37,22.784,13.37Z" transform="translate(-2.248 -5.063)" fill="#35a7e3"/>
</svg>
